<svg width="200" height="200" viewBox="0 0 200 200" fill="none" xmlns="http://www.w3.org/2000/svg">
<path fillRule="evenodd" clipRule="evenodd" d="M100 150C127.614 150 150 127.614 150 100C150 72.3857 127.614 50 100 50C72.3857 50 50 72.3857 50 100C50 127.614 72.3857 150 100 150ZM100 133.333C118.409 133.333 133.333 118.409 133.333 100C133.333 81.5905 118.409 66.6667 100 66.6667C81.5905 66.6667 66.6667 81.5905 66.6667 100C66.6667 118.409 81.5905 133.333 100 133.333Z" fill="white"/>
<path d="M150 41.668C145.398 41.668 141.667 45.399 141.667 50.0013C141.667 54.6036 145.398 58.3346 150 58.3346C154.603 58.3346 158.333 54.6036 158.333 50.0013C158.333 45.399 154.603 41.668 150 41.668Z" fill="white"/>
<path fillRule="evenodd" clipRule="evenodd" d="M13.7829 35.6325C8.33325 46.3281 8.33325 60.3294 8.33325 88.332V111.665C8.33325 139.668 8.33325 153.67 13.7829 164.365C18.5766 173.773 26.2256 181.422 35.6337 186.215C46.3293 191.665 60.3307 191.665 88.3332 191.665H111.667C139.669 191.665 153.671 191.665 164.366 186.215C173.774 181.422 181.423 173.773 186.217 164.365C191.667 153.67 191.667 139.668 191.667 111.665V88.332C191.667 60.3294 191.667 46.3281 186.217 35.6325C181.423 26.2244 173.774 18.5754 164.366 13.7817C153.671 8.33203 139.669 8.33203 111.667 8.33203H88.3332C60.3307 8.33203 46.3293 8.33203 35.6337 13.7817C26.2256 18.5754 18.5766 26.2244 13.7829 35.6325ZM111.667 24.9987H88.3332C74.0569 24.9987 64.352 25.0117 56.8506 25.6245C49.5436 26.2215 45.8069 27.3036 43.2002 28.6318C36.9282 31.8276 31.8288 36.9269 28.633 43.199C27.3048 45.8057 26.2227 49.5424 25.6257 56.8494C25.0129 64.3508 24.9999 74.0557 24.9999 88.332V111.665C24.9999 125.942 25.0129 135.646 25.6257 143.148C26.2227 150.455 27.3048 154.192 28.633 156.799C31.8288 163.07 36.9282 168.17 43.2002 171.365C45.8069 172.694 49.5436 173.776 56.8506 174.373C64.352 174.985 74.0569 174.999 88.3332 174.999H111.667C125.943 174.999 135.647 174.985 143.149 174.373C150.457 173.776 154.193 172.694 156.8 171.365C163.072 168.17 168.171 163.07 171.367 156.799C172.695 154.192 173.777 150.455 174.374 143.148C174.987 135.646 175 125.942 175 111.665V88.332C175 74.0557 174.987 64.3508 174.374 56.8494C173.777 49.5424 172.695 45.8057 171.367 43.199C168.171 36.9269 163.072 31.8276 156.8 28.6318C154.193 27.3036 150.457 26.2215 143.149 25.6245C135.647 25.0117 125.943 24.9987 111.667 24.9987Z" fill="white"/>
</svg>
