<svg width="80" height="48" viewBox="0 0 80 48" fill="none" xmlns="http://www.w3.org/2000/svg">
<path d="M78.008 3.21971C78.565 1.36221 78.008 0 75.37 0H66.633C64.409 0 63.393 1.17841 62.836 2.47271C62.836 2.47271 58.393 13.3341 52.098 20.3766C50.066 22.4259 49.138 23.073 48.03 23.073C47.476 23.073 46.672 22.4259 46.672 20.5683V3.21971C46.672 0.990709 46.03 0 44.177 0H30.448C29.061 0 28.224 1.03061 28.224 2.01331C28.224 4.12241 31.372 4.60981 31.695 10.5538V23.4485C31.695 26.2727 31.189 26.788 30.073 26.788C27.113 26.788 19.909 15.8866 15.634 3.40741C14.801 0.98271 13.961 0.00398922 11.73 0.00398922H2.996C0.498002 0.00398922 0 1.18241 0 2.47671C0 4.80151 2.96 16.3061 13.789 31.5216C21.009 41.9117 31.173 47.5441 40.432 47.5441C45.982 47.5441 46.668 46.2938 46.668 44.1367V36.2832C46.668 33.7826 47.197 33.2793 48.955 33.2793C50.245 33.2793 52.469 33.9344 57.652 38.9397C63.573 44.8757 64.553 47.5401 67.88 47.5401H76.613C79.107 47.5401 80.354 46.2898 79.637 43.8211C78.852 41.3644 76.024 37.7892 72.27 33.5589C70.23 31.1461 67.182 28.5496 66.254 27.2514C64.959 25.5776 65.334 24.8386 66.254 23.3526C66.258 23.3566 76.9 8.32881 78.008 3.21971Z" fill="white"/>
</svg>
