<svg xmlns="http://www.w3.org/2000/svg" width="44" height="44" viewBox="0 0 44 44" fill="none">
<path fill-rule="evenodd" clip-rule="evenodd" d="M21.8357 0C9.79458 0 0 9.79732 0 21.8419C0 26.6186 1.54045 31.0485 4.1591 34.6442L1.43756 42.7593L9.83297 40.0761C13.286 42.3618 17.4067 43.6841 21.8484 43.6841C33.8895 43.6841 43.6841 33.8864 43.6841 21.8423C43.6841 9.79771 33.8895 0.000361057 21.8484 0.000361057L21.8357 0ZM15.738 11.0947C15.3145 10.0804 14.9935 10.042 14.3518 10.0159C14.1334 10.0032 13.8899 9.9905 13.62 9.9905C12.7853 9.9905 11.9125 10.2344 11.3861 10.7736C10.7445 11.4285 9.15257 12.9563 9.15257 16.0896C9.15257 19.2228 11.4376 22.2532 11.7455 22.6772C12.0665 23.1005 16.2002 29.6236 22.6186 32.2821C27.6378 34.3622 29.1272 34.1694 30.2695 33.9256C31.9382 33.5661 34.0308 32.3328 34.5573 30.8438C35.0837 29.354 35.0837 28.0827 34.9293 27.8131C34.7753 27.5434 34.3515 27.3898 33.7098 27.0683C33.0682 26.7472 29.9485 25.2063 29.358 25.0009C28.7801 24.7827 28.2284 24.8599 27.7922 25.4763C27.1759 26.3366 26.5727 27.21 26.0847 27.7362C25.6996 28.1472 25.0703 28.1986 24.5442 27.9801C23.8381 27.6851 21.8615 26.9911 19.4221 24.8211C17.535 23.1392 16.2514 21.0464 15.8793 20.4173C15.5068 19.7755 15.8408 19.4026 16.1357 19.0561C16.4567 18.6579 16.7647 18.3756 17.0857 18.003C17.4067 17.6308 17.5864 17.4381 17.7918 17.0014C18.0103 16.5777 17.8559 16.141 17.702 15.82C17.548 15.4989 16.2644 12.3656 15.738 11.0947Z" fill="white"/>
</svg>