<svg width="201" height="201" viewBox="0 0 201 201" fill="none" xmlns="http://www.w3.org/2000/svg">
<path d="M197.034 128.099L177.157 124.856L177.689 121.593L192.203 123.961L181.151 114.535L181.408 112.959L194.908 107.615L180.356 105.242L180.895 101.941L200.772 105.183L200.166 108.896L185.467 114.507L197.585 124.723L197.034 128.099Z" fill="white"/>
<path d="M183.372 142.728C182.134 144.939 180.693 146.359 179.049 146.991C177.404 147.622 175.671 147.439 173.848 146.442C171.937 145.397 170.811 143.944 170.471 142.084C170.142 140.258 170.638 138.162 171.961 135.795L176.06 128.379L193.73 138.041L191.98 141.242L186.012 137.979L183.372 142.728ZM184.177 155.512L182.427 158.713L164.756 149.05L166.506 145.849L184.177 155.512ZM174.522 136.893C173.71 138.325 173.403 139.573 173.603 140.634C173.789 141.718 174.472 142.582 175.65 143.226C176.806 143.858 177.851 143.954 178.785 143.512C179.72 143.07 180.599 142.122 181.424 140.667L183.678 136.702L176.743 132.91L174.522 136.893Z" fill="white"/>
<path d="M149.54 163.086C151.115 161.85 152.803 161.089 154.606 160.801C156.409 160.513 158.147 160.696 159.818 161.348C161.485 162.036 162.929 163.158 164.149 164.712C165.369 166.267 166.107 167.926 166.363 169.689C166.615 171.487 166.38 173.218 165.656 174.881C164.948 176.564 163.806 178.023 162.232 179.259C160.658 180.494 158.979 181.248 157.196 181.52C155.409 181.828 153.681 181.637 152.014 180.949C150.343 180.297 148.897 179.193 147.677 177.638C146.457 176.084 145.721 174.407 145.469 172.609C145.212 170.846 145.438 169.123 146.146 167.44C146.835 165.773 147.966 164.321 149.54 163.086ZM151.511 165.597C150.495 166.395 149.768 167.335 149.33 168.419C148.888 169.539 148.767 170.697 148.965 171.894C149.179 173.11 149.717 174.267 150.577 175.363C151.437 176.459 152.425 177.246 153.54 177.723C154.671 178.22 155.825 178.378 157.001 178.195C158.158 178.027 159.245 177.545 160.261 176.747C161.278 175.95 162.015 175.001 162.472 173.902C162.909 172.818 163.031 171.659 162.837 170.427C162.638 169.23 162.109 168.084 161.249 166.988C160.389 165.892 159.393 165.095 158.262 164.598C157.127 164.136 155.973 163.979 154.801 164.126C153.624 164.309 152.527 164.799 151.511 165.597Z" fill="white"/>
<path d="M132.185 192.393L138.886 189.32L131.821 173.914L135.137 172.394L142.202 187.799L148.903 184.726L150.233 187.628L133.515 195.294L132.185 192.393Z" fill="white"/>
<path d="M118.146 187.031L122.243 186.201L120.552 177.858L124.127 177.134L128.127 196.872L124.552 197.597L122.861 189.254L118.69 190.1L113.975 199.74L110.139 200.518L115.7 189.504L105.618 180.884L109.826 180.032L118.146 187.031Z" fill="white"/>
<path d="M92.5776 200.306C90.6316 200.171 88.9177 199.62 87.4358 198.653C85.954 197.687 84.8371 196.403 84.085 194.802C83.3077 193.198 82.9894 191.386 83.13 189.364C83.2706 187.342 83.8377 185.579 84.8312 184.074C85.7977 182.592 87.0816 181.475 88.683 180.723C90.2843 179.971 92.058 179.662 94.004 179.798C95.4445 179.898 96.7519 180.268 97.9263 180.908C99.0755 181.547 100.03 182.426 100.79 183.546L101.513 173.159L105.152 173.412L103.243 200.857L99.7554 200.615L99.9769 197.431C99.0909 198.486 98.0093 199.249 96.7323 199.719C95.4535 200.214 94.0686 200.41 92.5776 200.306ZM94.0858 183.003C92.7969 182.913 91.6268 183.124 90.5754 183.635C89.4971 184.169 88.6304 184.947 87.9753 185.968C87.2932 187.013 86.9038 188.23 86.8071 189.62C86.7104 191.01 86.9284 192.257 87.4612 193.36C87.9668 194.488 88.7175 195.378 89.7133 196.031C90.6837 196.683 91.8134 197.053 93.1023 197.143C94.3659 197.231 95.5369 197.007 96.6152 196.473C97.6666 195.962 98.5324 195.197 99.2128 194.178C99.8678 193.157 100.244 191.951 100.34 190.561C100.437 189.171 100.233 187.913 99.7269 186.786C99.2195 185.684 98.4688 184.793 97.4748 184.115C96.479 183.462 95.3494 183.091 94.0858 183.003Z" fill="white"/>
<path d="M68.3994 187.913C66.0576 186.947 64.4758 185.685 63.654 184.127C62.8322 182.569 62.808 180.826 63.5813 178.898C64.3924 176.876 65.7014 175.586 67.5084 175.028C69.2824 174.484 71.4226 174.728 73.929 175.76L81.7798 178.95L74.2823 197.643L70.8965 196.285L73.4287 189.972L68.3994 187.913ZM55.8015 190.23L52.4157 188.872L59.9132 170.18L63.299 171.538L55.8015 190.23ZM73.1432 178.434C71.6244 177.798 70.3496 177.641 69.3191 177.965C68.265 178.279 67.4881 179.059 66.9883 180.305C66.4979 181.528 66.5274 182.577 67.077 183.452C67.6266 184.328 68.6726 185.089 70.215 185.735L74.4189 187.503L77.3613 180.167L73.1432 178.434Z" fill="white"/>
<path d="M34.7559 171.941L40.6211 176.407L50.8885 162.923L53.7908 165.133L43.5234 178.617L49.3886 183.083L47.4549 185.623L32.8221 174.481L34.7559 171.941Z" fill="white"/>
<path d="M28.3434 159.187C26.8289 157.156 26.1184 155.261 26.2119 153.503C26.3055 151.744 27.1787 150.235 28.8314 148.977C30.5648 147.657 32.3502 147.221 34.1876 147.668C35.9896 148.111 37.7015 149.419 39.3235 151.59L44.427 158.355L28.4035 170.557L26.1935 167.654L31.6052 163.533L28.3434 159.187ZM16.3405 154.715L14.1305 151.812L30.154 139.611L32.364 142.513L16.3405 154.715ZM37.2777 153.483C36.3003 152.157 35.2862 151.369 34.2356 151.118C33.1696 150.847 32.1025 151.119 31.0342 151.932C29.9861 152.73 29.4735 153.646 29.4962 154.679C29.5189 155.713 30.0267 156.902 31.0195 158.248L33.7215 161.922L40.01 157.134L37.2777 153.483Z" fill="white"/>
<path d="M2.8467 78.0128L22.8522 80.3364L22.4708 83.6204L7.86299 81.9237L19.3379 90.8311L19.1538 92.4164L5.91374 98.3767L20.5593 100.078L20.1735 103.399L0.167969 101.076L0.602001 97.3389L15.0271 91.0572L2.45212 81.41L2.8467 78.0128Z" fill="white"/>
<path d="M15.7341 62.8844C16.864 60.6168 18.235 59.1283 19.8471 58.4188C21.4593 57.7093 23.1996 57.8085 25.0681 58.7163C27.0277 59.6684 28.2219 61.0654 28.6507 62.9074C29.0679 64.7154 28.6728 66.833 27.4654 69.2601L23.728 76.8655L5.61292 68.0641L7.20713 64.7829L13.3252 67.7554L15.7341 62.8844ZM14.3146 50.1541L15.9089 46.8729L34.0239 55.6742L32.4297 58.9555L14.3146 50.1541ZM24.854 68.287C25.5964 66.817 25.8427 65.5566 25.5928 64.5057C25.354 63.4321 24.6307 62.6019 23.4231 62.0151C22.2382 61.4394 21.1896 61.3947 20.2774 61.8809C19.3652 62.3672 18.5324 63.3567 17.7789 64.8495L15.7178 68.9178L22.8271 72.372L24.854 68.287Z" fill="white"/>
<path d="M48.3597 41.0858C46.8455 42.3944 45.1947 43.2351 43.4074 43.6078C41.6201 43.9806 39.8762 43.8805 38.1757 43.3077C36.4779 42.6991 34.9829 41.6473 33.6908 40.1523C32.3987 38.6572 31.5829 37.0352 31.2433 35.2863C30.9063 33.5016 31.0599 31.7616 31.7042 30.0663C32.332 28.3519 33.4029 26.8403 34.9171 25.5317C36.4313 24.223 38.0725 23.3906 39.8406 23.0344C41.6114 22.6425 43.3457 22.7509 45.0436 23.3594C46.7441 23.9323 48.2403 24.9662 49.5324 26.4613C50.8245 27.9563 51.639 29.5962 51.976 31.3809C52.3157 33.1298 52.1716 34.8615 51.5438 36.576C50.9353 38.2739 49.8739 39.7771 48.3597 41.0858ZM46.2725 38.6707C47.25 37.8259 47.9316 36.8518 48.3173 35.7483C48.7056 34.6091 48.7723 33.4466 48.5174 32.2605C48.2459 31.0554 47.6547 29.9257 46.7436 28.8715C45.8325 27.8173 44.8087 27.0782 43.6721 26.6542C42.519 26.211 41.359 26.1085 40.1921 26.3469C39.0445 26.5686 37.9819 27.1019 37.0043 27.9467C36.0268 28.7915 35.3356 29.774 34.9308 30.894C34.5451 31.9974 34.4784 33.16 34.7307 34.3818C34.9856 35.5678 35.5685 36.6879 36.4796 37.7421C37.3907 38.7963 38.4228 39.5449 39.5759 39.9881C40.7317 40.3956 41.8917 40.498 43.0559 40.2954C44.2228 40.0571 45.295 39.5155 46.2725 38.6707Z" fill="white"/>
<path d="M63.966 11.0734L57.421 14.466L65.2204 29.5127L61.9817 31.1915L54.1822 16.1448L47.6372 19.5374L46.1683 16.7035L62.497 8.23952L63.966 11.0734Z" fill="white"/>
<path d="M78.4083 15.5698L74.3577 16.6018L76.4591 24.8503L72.924 25.7509L67.952 6.23426L71.4871 5.33367L73.5885 13.5822L77.7127 12.5315L81.9451 2.66941L85.7379 1.70315L80.7285 12.9788L91.2255 21.0884L87.0644 22.1485L78.4083 15.5698Z" fill="white"/>
<path d="M103.493 0.995187C105.443 1.04036 107.181 1.51139 108.706 2.40828C110.231 3.30516 111.406 4.53604 112.231 6.1009C113.082 7.66636 113.484 9.46214 113.437 11.4883C113.39 13.5144 112.905 15.3023 111.982 16.852C111.085 18.377 109.854 19.5521 108.289 20.3775C106.725 21.2028 104.967 21.5928 103.017 21.5477C101.573 21.5142 100.25 21.2048 99.0473 20.6195C97.8699 20.0347 96.8756 19.2008 96.0645 18.1178L95.8233 28.527L92.1763 28.4425L92.8134 0.937866L96.3085 1.01882L96.2346 4.20997C97.0708 3.11437 98.1159 2.30236 99.3698 1.77392C100.624 1.22015 101.999 0.960575 103.493 0.995187ZM102.787 18.3495C104.079 18.3794 105.238 18.1148 106.264 17.5558C107.317 16.972 108.146 16.155 108.754 15.1048C109.387 14.0298 109.719 12.7959 109.752 11.4029C109.784 10.01 109.508 8.77457 108.925 7.69678C108.368 6.59424 107.577 5.7397 106.552 5.13313C105.552 4.52716 104.407 4.20921 103.115 4.17929C101.849 4.14996 100.689 4.42719 99.6369 5.01097C98.6104 5.57002 97.7809 6.37436 97.1484 7.42399C96.5412 8.47421 96.2215 9.6958 96.1893 11.0888C96.157 12.4817 96.4195 13.7295 96.9768 14.832C97.5347 15.9092 98.3257 16.7638 99.3501 17.3956C100.375 18.0022 101.521 18.3202 102.787 18.3495Z" fill="white"/>
<path d="M127.806 12.0016C130.192 12.8528 131.834 14.0364 132.731 15.5524C133.628 17.0683 133.737 18.808 133.058 20.7715C132.347 22.8307 131.102 24.1831 129.325 24.8287C127.579 25.4586 125.43 25.319 122.876 24.4098L114.879 21.6067L121.456 2.57081L124.904 3.76208L122.683 10.1912L127.806 12.0016ZM140.276 9.07319L143.724 10.2645L137.147 29.3004L133.699 28.1091L140.276 9.07319ZM123.53 21.7011C125.079 22.2627 126.359 22.3568 127.373 21.9833C128.41 21.6181 129.148 20.8009 129.587 19.5319C130.017 18.2868 129.936 17.2404 129.345 16.3927C128.753 15.545 127.671 14.8362 126.099 14.2663L121.814 12.7054L119.233 20.176L123.53 21.7011Z" fill="white"/>
<path d="M162.454 26.321L156.383 22.1383L146.767 36.0944L143.763 34.0247L153.379 20.0686L147.308 15.886L149.119 13.2575L164.265 23.6925L162.454 26.321Z" fill="white"/>
<path d="M169.756 38.9223C171.365 40.8792 172.164 42.7383 172.154 44.4996C172.144 46.261 171.343 47.8093 169.752 49.1446C168.083 50.545 166.32 51.0652 164.463 50.705C162.643 50.3479 160.871 49.123 159.148 47.0303L153.73 40.5145L169.157 27.5684L171.502 30.3629L166.292 34.7353L169.756 38.9223ZM181.957 42.8216L184.302 45.6161L168.874 58.5622L166.529 55.7677L181.957 42.8216ZM161.102 45.0434C162.141 46.3211 163.191 47.0603 164.252 47.261C165.33 47.4811 166.383 47.1596 167.411 46.2966C168.421 45.4498 168.889 44.5108 168.818 43.4795C168.746 42.4483 168.183 41.2842 167.127 39.9871L164.254 36.4451L158.199 41.5258L161.102 45.0434Z" fill="white"/>
</svg>
