<svg viewBox="0 0 86 21" fill="none" xmlns="http://www.w3.org/2000/svg">
  <g clipPath="url(#clip0_1753_16079)">
    <path fillRule="evenodd" clipRule="evenodd" d="M20.9668 10.7432C20.9668 16.3474 16.4236 20.8906 10.8193 20.8906C5.21505 20.8906 0.671875 16.3474 0.671875 10.7432C0.671875 5.13887 5.21505 0.595703 10.8193 0.595703C16.4236 0.595703 20.9668 5.13887 20.9668 10.7432ZM12.262 17.1133H14.4896V17.1095H14.4745V4.37106H11.2546C8.02153 4.37106 6.31365 6.03751 6.31365 8.48728C6.31365 10.4475 7.25138 11.6093 8.91783 12.7993L6.01991 17.1114H8.41507L11.635 12.2815L10.5146 11.5264C9.15509 10.6169 8.49793 9.9033 8.49793 8.36301C8.49793 7.00537 9.45072 6.09588 11.2697 6.09588H12.262V17.1133Z" fill="white"/>
  </g>
  <path d="M36.5787 17.4117C35.6748 17.4117 34.8331 17.2648 34.0536 16.971C33.2853 16.666 32.6131 16.2423 32.0369 15.7C31.472 15.1464 31.0314 14.4968 30.715 13.7511C30.3987 13.0055 30.2405 12.192 30.2405 11.3108C30.2405 10.4295 30.3987 9.61606 30.715 8.8704C31.0314 8.12473 31.4776 7.48075 32.0538 6.93844C32.63 6.38484 33.3022 5.96117 34.0705 5.66742C34.8388 5.36238 35.6805 5.20985 36.5956 5.20985C37.5672 5.20985 38.4541 5.37932 39.2563 5.71826C40.0584 6.0459 40.7363 6.53737 41.2899 7.19265L39.8664 8.53146C39.437 8.06824 38.9569 7.72365 38.4259 7.49769C37.8949 7.26044 37.3187 7.14181 36.6973 7.14181C36.0759 7.14181 35.5053 7.24349 34.9856 7.44685C34.4772 7.65022 34.031 7.93831 33.6468 8.31115C33.274 8.68398 32.9803 9.1246 32.7656 9.63301C32.5622 10.1414 32.4605 10.7007 32.4605 11.3108C32.4605 11.9208 32.5622 12.4801 32.7656 12.9885C32.9803 13.4969 33.274 13.9375 33.6468 14.3104C34.031 14.6832 34.4772 14.9713 34.9856 15.1747C35.5053 15.378 36.0759 15.4797 36.6973 15.4797C37.3187 15.4797 37.8949 15.3667 38.4259 15.1408C38.9569 14.9035 39.437 14.5476 39.8664 14.0731L41.2899 15.4289C40.7363 16.0728 40.0584 16.5643 39.2563 16.9032C38.4541 17.2422 37.5616 17.4117 36.5787 17.4117ZM43.0982 17.2422V8.19252H51.775V17.2422H49.6736V9.49743L50.1651 9.98889H44.7251L45.2166 9.49743V17.2422H43.0982ZM53.3115 17.2252L53.4132 15.4458C53.4923 15.4571 53.5657 15.4684 53.6335 15.4797C53.7013 15.491 53.7634 15.4967 53.8199 15.4967C54.1702 15.4967 54.4413 15.3893 54.6334 15.1747C54.8254 14.96 54.9667 14.6719 55.0571 14.3104C55.1587 13.9375 55.2265 13.5252 55.2604 13.0732C55.3056 12.61 55.3395 12.1468 55.3621 11.6836L55.5146 8.19252H62.8357V17.2422H60.7173V9.4127L61.2088 9.98889H56.9043L57.3618 9.39575L57.2432 11.7853C57.2093 12.5874 57.1415 13.3331 57.0398 14.0223C56.9495 14.7001 56.8026 15.2933 56.5992 15.8017C56.4072 16.3101 56.136 16.7055 55.7858 16.988C55.4468 17.2704 55.0119 17.4117 54.4809 17.4117C54.3114 17.4117 54.125 17.3947 53.9216 17.3608C53.7295 17.3269 53.5262 17.2817 53.3115 17.2252ZM65.6886 17.2422V8.19252H67.807V14.1578L72.8063 8.19252H74.7383V17.2422H72.6199V11.2769L67.6375 17.2422H65.6886ZM79.469 17.2422V9.48049L79.9605 9.98889H76.283V8.19252H84.7564V9.98889H81.0959L81.5874 9.48049V17.2422H79.469Z" fill="white"/>
  <defs>
    <clipPath id="clip0_1753_16079">
      <rect width="20.3363" height="20.3363" fill="white" transform="translate(0.652344 0.574219)"/>
    </clipPath>
  </defs>
</svg>
