<svg width="49" height="48" viewBox="0 0 49 48" fill="none" xmlns="http://www.w3.org/2000/svg">
<circle cx="24.9609" cy="24" r="23" stroke="white" stroke-width="2"/>
<path d="M24.63 8.48071C20.4667 8.48071 17.082 11.8654 17.082 16.0287C17.082 20.1125 20.276 23.4177 24.4393 23.5607C24.5664 23.5448 24.6935 23.5448 24.7889 23.5607C24.8207 23.5607 24.8366 23.5607 24.8683 23.5607C24.8842 23.5607 24.8842 23.5607 24.9001 23.5607C28.9681 23.4177 32.162 20.1125 32.1779 16.0287C32.1779 11.8654 28.7933 8.48071 24.63 8.48071Z" fill="white"/>
<path d="M32.7045 27.7875C28.2711 24.8319 21.0409 24.8319 16.5757 27.7875C14.5576 29.1382 13.4453 30.9656 13.4453 32.9201C13.4453 34.8746 14.5576 36.6861 16.5598 38.0209C18.7845 39.5146 21.7083 40.2615 24.6322 40.2615C27.556 40.2615 30.4798 39.5146 32.7045 38.0209C34.7067 36.6703 35.819 34.8587 35.819 32.8883C35.8031 30.9338 34.7067 29.1223 32.7045 27.7875Z" fill="white"/>
</svg>
