<svg width="668" height="109" viewBox="0 0 668 109" fill="none" xmlns="http://www.w3.org/2000/svg">
<path d="M187.874 109.001C173.156 109.001 160.867 104.071 151.078 94.2128C141.289 84.3542 136.359 71.9962 136.359 57.2084C136.359 42.4205 141.289 30.0625 151.078 20.2039C160.867 10.3453 173.156 5.41602 187.874 5.41602C198.496 5.41602 207.73 8.05423 215.506 13.3307C222.31 17.9128 227.656 23.953 231.543 31.5205C232.377 33.1173 231.196 35.0612 229.391 35.0612H213.423C212.659 35.0612 211.965 34.7141 211.549 34.1587C205.647 26.7994 197.733 23.0504 187.943 23.0504C178.849 23.0504 171.281 26.3135 165.171 32.7701C159.131 39.2963 156.077 47.4192 156.077 57.2778C156.077 67.067 159.062 75.2593 165.171 81.7854C171.212 88.3115 178.779 91.5746 187.943 91.5746C194.956 91.5746 200.787 89.7001 205.37 86.0204C208.91 83.174 211.618 79.4943 213.562 74.9122C214.395 72.8988 212.868 70.6771 210.715 70.6771H185.028C183.708 70.6771 182.598 69.5663 182.598 68.2472V55.5421C182.598 54.223 183.708 53.1122 185.028 53.1122H233.765C235.154 53.1122 236.264 54.223 236.195 55.6115C235.778 71.3714 231.266 84.1459 222.726 93.8657C213.562 103.933 201.968 109.001 187.874 109.001Z" fill="white"/>
<path d="M289.93 46.654L313.119 8.46931C313.535 7.77505 314.368 7.28906 315.202 7.28906H330.892C332.766 7.28906 333.947 9.37187 332.975 10.9687L296.803 71.3005C296.595 71.6476 296.456 72.1336 296.456 72.5502V104.556C296.456 105.875 295.345 106.986 294.026 106.986H279.238C277.919 106.986 276.809 105.875 276.809 104.556V72.5502C276.809 72.1336 276.67 71.6476 276.461 71.3005L240.012 10.9687C239.04 9.37187 240.221 7.28906 242.095 7.28906H258.063C258.896 7.28906 259.73 7.70562 260.146 8.46931L283.473 46.654C284.862 49.1534 288.472 49.1534 289.93 46.654Z" fill="white"/>
<path d="M371.511 11.1074L404.35 81.4367C405.183 83.2418 407.682 83.2418 408.515 81.4367L441.493 10.6215C442.465 8.60808 444.478 7.3584 446.7 7.3584H459.752C462.876 7.3584 465.445 9.92719 465.445 13.0514V101.709C465.445 104.695 463.015 107.055 460.099 107.055H451.143C448.158 107.055 445.797 104.625 445.797 101.709V55.0546C445.797 52.5552 442.465 51.8609 441.423 54.0826L418.304 104C417.402 105.875 415.527 107.125 413.444 107.125H398.934C396.851 107.125 394.977 105.944 394.074 104L370.955 54.0826C369.914 51.8609 366.581 52.5552 366.581 55.0546V101.709C366.581 104.695 364.151 107.055 361.236 107.055H352.279C349.294 107.055 346.934 104.625 346.934 101.709V13.468C346.934 10.066 349.641 7.3584 353.043 7.3584H365.748C368.109 7.3584 370.4 8.81636 371.511 11.1074Z" fill="white"/>
<path d="M529.527 46.1679L552.369 8.53866C552.785 7.84439 553.618 7.3584 554.452 7.3584H570.142C572.016 7.3584 573.197 9.4412 572.225 11.038L536.053 71.3699C535.845 71.717 535.706 72.203 535.706 72.6195V104.625C535.706 105.944 534.595 107.055 533.276 107.055H518.488C517.169 107.055 516.059 105.944 516.059 104.625V72.6195C516.059 72.203 515.92 71.717 515.711 71.3699L479.262 11.038C478.29 9.4412 479.471 7.3584 481.345 7.3584H497.313C498.146 7.3584 498.98 7.77496 499.396 8.53866L522.446 46.2374C523.973 48.8756 527.861 48.8756 529.527 46.1679Z" fill="white"/>
<path d="M579.297 103.167L610.261 59.9145C611.303 58.4566 611.303 56.5126 610.261 54.9852L579.297 11.1075C578.186 9.51072 579.297 7.28906 581.31 7.28906H598.042C598.806 7.28906 599.57 7.70562 600.056 8.33046L620.051 36.6566C621.717 39.0171 625.258 39.0171 626.924 36.6566L647.127 8.33046C647.613 7.70562 648.307 7.28906 649.14 7.28906H665.039C667.052 7.28906 668.163 9.51072 666.983 11.177L635.949 54.4298C634.908 55.8878 634.908 57.9011 635.949 59.3591L667.053 103.237C668.163 104.834 667.052 107.055 665.039 107.055H648.516C647.752 107.055 646.988 106.708 646.502 106.014L626.16 77.4795C624.494 75.119 620.953 75.119 619.287 77.4795L598.806 106.014C598.32 106.639 597.626 107.055 596.793 107.055H581.172C579.297 107.055 578.117 104.834 579.297 103.167Z" fill="white"/>
<path d="M99.7662 106.153H6.38726C2.8465 106.153 0 103.307 0 99.7662V6.38726C0 2.84649 2.8465 0 6.38726 0H99.7662C103.307 0 106.153 2.84649 106.153 6.38726V99.7662C106.153 103.307 103.307 106.153 99.7662 106.153Z" fill="white"/>
<path d="M30.4075 36.7234L48.5278 17.9088C49.4304 16.9368 50.9578 16.9368 51.9297 17.8394L66.0928 31.447C67.0648 32.3496 68.5922 32.3496 69.4947 31.3776L80.3253 20.2693C80.8113 19.7833 81.6444 19.7139 82.1998 20.2693L88.0316 25.9623C88.5176 26.4483 88.5871 27.2814 88.0316 27.8368L69.9113 46.3738C69.0087 47.3457 67.4813 47.3457 66.5094 46.4432L52.138 32.7661C51.166 31.8636 49.6387 31.8636 48.7361 32.8355L37.975 44.0132C37.489 44.5687 36.6559 44.5687 36.1004 44.0827L30.4075 38.598C29.9215 38.112 29.9215 37.2789 30.4075 36.7234Z" fill="#294AE7"/>
<path d="M45.2611 49.6397L50.6069 44.2938C51.2318 43.669 52.2037 43.669 52.8286 44.2938L72.0598 63.6639C73.1012 64.7053 73.1012 66.3715 72.0598 67.4129L53.3146 86.8524C52.6897 87.4773 51.7177 87.4772 51.0929 86.9218L45.6776 81.7843C45.0528 81.1594 45.0528 80.1874 45.6082 79.5626L57.2025 67.6212C58.2439 66.5798 58.1744 64.9136 57.2025 63.8722L45.1222 51.9308C44.6362 51.2365 44.6362 50.2645 45.2611 49.6397Z" fill="#294AE7"/>
<path d="M37.6331 59.08C31.3847 65.5367 25.1363 71.9239 18.8879 78.3806C18.4019 78.936 18.4019 79.7691 18.8879 80.2551L24.5115 85.8787C25.0669 86.4341 25.9 86.4341 26.4554 85.8787L44.3675 67.2723C45.2701 66.3003 45.2701 64.773 44.3675 63.801L39.5771 59.0105C39.0217 58.5246 38.1191 58.5246 37.6331 59.08Z" fill="#294AE7"/>
</svg>
