<svg xmlns="http://www.w3.org/2000/svg" width="304" height="310" viewBox="0 0 304 310" fill="none">
<path fillRule="evenodd" clipRule="evenodd" d="M182.445 91.6718C182.948 93.1466 182.16 94.7501 180.686 95.2532L113.378 118.213C111.903 118.716 110.3 117.928 109.796 116.453L107.312 109.17C106.809 107.695 107.597 106.091 109.071 105.588L176.379 82.6286C177.854 82.1255 179.457 82.9133 179.96 84.3881L182.445 91.6718Z" fill="white"/>
<path fillRule="evenodd" clipRule="evenodd" d="M216.677 94.4138C215.219 94.9618 213.592 94.2234 213.044 92.7646L200.563 59.5395C200.015 58.0807 200.754 56.454 202.212 55.906L209.417 53.1998C210.875 52.6518 212.502 53.3901 213.05 54.8489L225.531 88.074C226.079 89.5328 225.34 91.1596 223.882 91.7076L216.677 94.4138Z" fill="white"/>
<path fillRule="evenodd" clipRule="evenodd" d="M81.2554 148.22C79.7967 148.768 78.1698 148.03 77.6216 146.571L65.1368 113.352C64.5886 111.893 65.3267 110.266 66.7854 109.718L73.9892 107.01C75.4479 106.462 77.0748 107.2 77.623 108.659L90.1078 141.878C90.656 143.337 89.9179 144.964 88.4592 145.512L81.2554 148.22Z" fill="white"/>
<path fillRule="evenodd" clipRule="evenodd" d="M203.265 114.365C201.806 114.913 200.179 114.175 199.631 112.716L176.812 51.987C176.264 50.5283 177.002 48.9015 178.461 48.3533L185.665 45.6464C187.123 45.0983 188.75 45.8365 189.298 47.2952L212.118 108.025C212.666 109.483 211.928 111.11 210.469 111.658L203.265 114.365Z" fill="white"/>
<path fillRule="evenodd" clipRule="evenodd" d="M104.685 153.347C103.226 153.895 101.599 153.157 101.051 151.698L78.2318 90.9685C77.6836 89.5098 78.4218 87.8829 79.8805 87.3348L87.0845 84.6279C88.5433 84.0797 90.1701 84.8179 90.7182 86.2766L113.538 147.006C114.086 148.465 113.348 150.092 111.889 150.64L104.685 153.347Z" fill="white"/>
<path fillRule="evenodd" clipRule="evenodd" d="M176.675 176.037C178.17 176.479 179.023 178.049 178.581 179.543L158.407 247.731C157.965 249.225 156.395 250.078 154.901 249.636L147.521 247.453C146.027 247.01 145.174 245.441 145.616 243.946L165.79 175.759C166.232 174.264 167.802 173.411 169.296 173.853L176.675 176.037Z" fill="white"/>
<path fillRule="evenodd" clipRule="evenodd" d="M198.712 149.682C198.316 151.189 196.773 152.09 195.266 151.694L160.941 142.676C159.434 142.28 158.533 140.737 158.929 139.23L160.884 131.787C161.28 130.28 162.823 129.379 164.33 129.775L198.655 138.793C200.162 139.189 201.063 140.732 200.667 142.239L198.712 149.682Z" fill="white"/>
<path fillRule="evenodd" clipRule="evenodd" d="M164.325 291.299C163.929 292.806 162.386 293.707 160.879 293.311L126.548 284.288C125.04 283.892 124.14 282.349 124.536 280.842L126.492 273.399C126.888 271.892 128.431 270.991 129.938 271.387L164.269 280.41C165.776 280.806 166.677 282.349 166.281 283.856L164.325 291.299Z" fill="white"/>
<path fillRule="evenodd" clipRule="evenodd" d="M207.236 172.162C206.84 173.669 205.297 174.57 203.79 174.174L141.048 157.687C139.541 157.291 138.64 155.749 139.036 154.241L140.992 146.798C141.388 145.291 142.931 144.39 144.438 144.786L207.18 161.273C208.687 161.669 209.587 163.212 209.191 164.719L207.236 172.162Z" fill="white"/>
<path fillRule="evenodd" clipRule="evenodd" d="M182.058 275.14C181.662 276.647 180.119 277.547 178.612 277.151L115.87 260.665C114.363 260.269 113.462 258.726 113.858 257.219L115.814 249.776C116.21 248.269 117.753 247.368 119.26 247.764L182.002 264.25C183.509 264.646 184.41 266.189 184.014 267.696L182.058 275.14Z" fill="white"/>
</svg>