<svg xmlns="http://www.w3.org/2000/svg" width="233" height="166" viewBox="0 0 233 166" fill="none">
<path fillRule="evenodd" clipRule="evenodd" d="M169.307 69.4163C170.064 71.52 168.973 73.8392 166.869 74.5964L75.1291 107.619C73.0254 108.376 70.7062 107.285 69.9489 105.181L66.6915 96.1316C65.9343 94.0279 67.0258 91.7087 69.1294 90.9515L160.87 57.9289C162.973 57.1716 165.292 58.2631 166.05 60.3668L169.307 69.4163Z" fill="#212428"/>
<path fillRule="evenodd" clipRule="evenodd" d="M212.14 75.8327C210.049 76.6232 207.713 75.5686 206.922 73.4772L190.47 29.9497C189.68 27.8583 190.734 25.5221 192.826 24.7316L201.822 21.3311C203.914 20.5407 206.25 21.5953 207.041 23.6867L223.493 67.2141C224.283 69.3055 223.229 71.6418 221.137 72.4322L212.14 75.8327Z" fill="#212428"/>
<path fillRule="evenodd" clipRule="evenodd" d="M32.4334 147.65C30.342 148.44 28.0057 147.385 27.2153 145.294L10.7632 101.767C9.97275 99.6752 11.0273 97.339 13.1187 96.5485L22.1155 93.148C24.2069 92.3576 26.5431 93.4122 27.3336 95.5036L43.7856 139.031C44.5761 141.122 43.5215 143.459 41.4301 144.249L32.4334 147.65Z" fill="#212428"/>
<path fillRule="evenodd" clipRule="evenodd" d="M194.388 102.361C192.296 103.152 189.96 102.097 189.169 100.006L158.915 19.9834C158.124 17.8921 159.178 15.5558 161.27 14.7651L170.266 11.3637C172.357 10.5731 174.694 11.6274 175.484 13.7188L205.739 93.7414C206.53 95.8328 205.475 98.1691 203.384 98.9598L194.388 102.361Z" fill="#212428"/>
<path fillRule="evenodd" clipRule="evenodd" d="M63.5694 154.4C61.4781 155.191 59.1417 154.137 58.351 152.045L28.0962 72.0225C27.3055 69.9312 28.3599 67.5948 30.4512 66.8041L39.4476 63.4028C41.5389 62.6121 43.8753 63.6665 44.6659 65.7578L74.9208 145.781C75.7115 147.872 74.6571 150.208 72.5658 150.999L63.5694 154.4Z" fill="#212428"/>
</svg>