<svg width="322" height="246" viewBox="0 0 322 246" fill="none" xmlns="http://www.w3.org/2000/svg">
<path fillRule="evenodd" clipRule="evenodd" d="M154.786 6.29716C158.064 2.93826 163.44 2.86268 166.811 6.12812L228.596 65.9882C231.967 69.2538 237.344 69.1781 240.621 65.8188L286.467 18.8266C289.744 15.4673 295.121 15.3916 298.492 18.6571L315.513 35.1483C318.901 38.43 318.977 43.8393 315.684 47.2151L241.434 123.321C238.157 126.681 232.78 126.756 229.409 123.491L167.622 63.6288C164.252 60.3634 158.875 60.439 155.597 63.7979L109.743 110.793C106.466 114.152 101.089 114.228 97.7182 110.962L80.6976 94.4695C77.3106 91.1876 77.2347 85.7783 80.5284 82.4027L154.786 6.29716Z" fill="white"/>
<path fillRule="evenodd" clipRule="evenodd" d="M7.08264 270.269C3.70301 266.98 3.63934 261.57 6.94061 258.202L81.3203 182.315C84.6053 178.964 89.9825 178.9 93.3455 182.174L110.329 198.704C113.708 201.994 113.772 207.403 110.471 210.771L36.091 286.658C32.8059 290.01 27.4288 290.073 24.0658 286.8L7.08264 270.269Z" fill="white"/>
<path fillRule="evenodd" clipRule="evenodd" d="M188.552 223.299C191.817 219.957 191.782 214.609 188.472 211.311L136.649 159.674C133.308 156.345 133.308 150.936 136.648 147.606L153.434 130.877C156.758 127.564 162.135 127.564 165.46 130.877L245.8 210.929C249.11 214.226 249.145 219.574 245.88 222.916L167.627 303.006C164.347 306.363 158.97 306.435 155.602 303.167L138.592 286.663C135.208 283.379 135.136 277.969 138.432 274.596L188.552 223.299Z" fill="white"/>
</svg>
