<svg
            width="198"
            height="190"
            viewBox="0 0 198 190"
            fill="none"
            xmlns="http://www.w3.org/2000/svg"
          >
            <path
              fillRule="evenodd"
              clipRule="evenodd"
              d="M94.8967 3.83925C96.9638 1.71762 100.358 1.6699 102.484 3.73258L140.234 40.3589C142.36 42.4217 145.755 42.3738 147.822 40.252L175.786 11.547C177.854 9.42516 181.248 9.37733 183.374 11.4401L193.637 21.3971C195.769 23.4659 195.817 26.8725 193.744 29.0005L148.322 75.626C146.255 77.7478 142.86 77.7957 140.734 75.7329L102.983 39.1055C100.857 37.0428 97.4621 37.0905 95.395 39.2121L67.4254 67.919C65.3582 70.0407 61.9635 70.0883 59.8375 68.0254L49.5756 58.0677C47.4436 55.9988 47.3958 52.5922 49.469 50.4643L94.8967 3.83925Z"
              fill="white"
            />
            <path
              fillRule="evenodd"
              clipRule="evenodd"
              d="M4.35428 166.215C2.22689 164.142 2.18679 160.735 4.26479 158.612L49.7668 112.121C51.8388 110.004 55.2336 109.964 57.3549 112.031L67.5942 122.012C69.7216 124.086 69.7617 127.493 67.6837 129.616L22.1817 176.107C20.1097 178.224 16.7149 178.264 14.5936 176.196L4.35428 166.215Z"
              fill="white"
            />
            <path
              fillRule="evenodd"
              clipRule="evenodd"
              d="M115.65 137.321C117.705 135.214 117.683 131.846 115.6 129.768L83.9448 98.1809C81.8418 96.0824 81.8416 92.6755 83.9443 90.5768L94.0645 80.4761C96.1611 78.3834 99.5562 78.3832 101.653 80.4756L150.815 129.532C152.899 131.611 152.921 134.979 150.866 137.085L102.983 186.163C100.914 188.284 97.5194 188.329 95.3948 186.264L85.1398 176.3C83.0092 174.229 82.9638 170.823 85.0384 168.696L115.65 137.321Z"
              fill="white"
            />
          </svg>