<svg xmlns="http://www.w3.org/2000/svg" width="29" height="29" viewBox="0 0 29 29" fill="none">
<path d="M18.4133 26.9096H18.2562C12.8912 26.9096 10.3054 24.795 9.85833 20.0583C9.81 19.5629 10.1725 19.1158 10.68 19.0675C11.1633 19.0191 11.6225 19.3937 11.6708 19.8891C12.0212 23.6833 13.8096 25.0971 18.2683 25.0971H18.4254C23.3433 25.0971 25.0833 23.3571 25.0833 18.4391V10.5608C25.0833 5.64289 23.3433 3.90289 18.4254 3.90289H18.2683C13.7854 3.90289 11.9971 5.34081 11.6708 9.20748C11.6104 9.70289 11.1875 10.0775 10.68 10.0291C10.1725 9.99289 9.81 9.54581 9.84625 9.05039C10.2571 4.24123 12.855 2.09039 18.2562 2.09039H18.4133C24.3462 2.09039 26.8837 4.62789 26.8837 10.5608V18.4391C26.8837 24.3721 24.3462 26.9096 18.4133 26.9096Z" fill="white"/>
<path d="M18.1258 15.4063H4.375C3.87958 15.4063 3.46875 14.9954 3.46875 14.5C3.46875 14.0046 3.87958 13.5938 4.375 13.5938H18.1258C18.6213 13.5938 19.0321 14.0046 19.0321 14.5C19.0321 14.9954 18.6213 15.4063 18.1258 15.4063Z" fill="white"/>
<path d="M7.06833 19.4541C6.83875 19.4541 6.60917 19.3696 6.42792 19.1883L2.38 15.1404C2.02958 14.79 2.02958 14.21 2.38 13.8596L6.42792 9.81164C6.77833 9.46122 7.35833 9.46122 7.70875 9.81164C8.05917 10.1621 8.05917 10.7421 7.70875 11.0925L4.30125 14.5L7.70875 17.9075C8.05917 18.2579 8.05917 18.8379 7.70875 19.1883C7.53958 19.3696 7.29792 19.4541 7.06833 19.4541Z" fill="white"/>
</svg>