<svg
          width="196"
          height="32"
          viewBox="0 0 196 32"
          fill="none"
          xmlns="http://www.w3.org/2000/svg"
        >
          <path
            d="M55.1548 32.0001C50.8338 32.0001 47.2262 30.553 44.3523 27.6587C41.4784 24.7645 40.0312 21.1365 40.0312 16.7951C40.0312 12.4537 41.4784 8.82563 44.3523 5.93137C47.2262 3.0371 50.8338 1.58997 55.1548 1.58997C58.2733 1.58997 60.9841 2.36449 63.2669 3.91353C65.2644 5.25875 66.8338 7.032 67.9752 9.25366C68.2198 9.72245 67.8733 10.2931 67.3433 10.2931H62.6554C62.4312 10.2931 62.2274 10.1912 62.1051 10.0282C60.3726 7.86767 58.0491 6.76703 55.1752 6.76703C52.5051 6.76703 50.2835 7.72499 48.4898 9.62054C46.7166 11.5365 45.8198 13.9212 45.8198 16.8154C45.8198 19.6893 46.6962 22.0944 48.4898 24.0103C50.2631 25.9263 52.4847 26.8842 55.1752 26.8842C57.2338 26.8842 58.9459 26.3339 60.2911 25.2537C61.3306 24.418 62.1255 23.3377 62.6962 21.9925C62.9408 21.4014 62.4924 20.7492 61.8605 20.7492H54.3191C53.9319 20.7492 53.6058 20.4231 53.6058 20.0358V16.3059C53.6058 15.9186 53.9319 15.5925 54.3191 15.5925H68.6274C69.0351 15.5925 69.3612 15.9186 69.3408 16.3263C69.2185 20.953 67.8937 24.7033 65.3867 27.5568C62.6962 30.5122 59.2924 32.0001 55.1548 32.0001Z"
            fill="white"
          />
          <path
            d="M85.1164 13.6963L91.924 2.48614C92.0463 2.28232 92.2909 2.13965 92.5355 2.13965H97.1419C97.6922 2.13965 98.0387 2.75111 97.7533 3.2199L87.1342 20.932C87.0731 21.0339 87.0323 21.1766 87.0323 21.2989V30.6951C87.0323 31.0823 86.7062 31.4084 86.3189 31.4084H81.9775C81.5903 31.4084 81.2642 31.0823 81.2642 30.6951V21.2989C81.2642 21.1766 81.2234 21.0339 81.1623 20.932L70.4616 3.2199C70.1763 2.75111 70.5228 2.13965 71.0731 2.13965H75.761C76.0056 2.13965 76.2502 2.26194 76.3725 2.48614L83.2209 13.6963C83.6285 14.4301 84.6884 14.4301 85.1164 13.6963Z"
            fill="white"
          />
          <path
            d="M109.067 3.26043L118.708 23.9076C118.952 24.4375 119.686 24.4375 119.931 23.9076L129.612 3.11775C129.897 2.52667 130.488 2.15979 131.141 2.15979H134.973C135.89 2.15979 136.644 2.91393 136.644 3.83113V29.8591C136.644 30.7356 135.931 31.4286 135.074 31.4286H132.445C131.569 31.4286 130.876 30.7152 130.876 29.8591V16.1623C130.876 15.4286 129.897 15.2248 129.592 15.877L122.804 30.5318C122.539 31.0821 121.989 31.449 121.378 31.449H117.118C116.506 31.449 115.956 31.1025 115.691 30.5318L108.904 15.877C108.598 15.2248 107.62 15.4286 107.62 16.1623V29.8591C107.62 30.7356 106.906 31.4286 106.05 31.4286H103.421C102.545 31.4286 101.852 30.7152 101.852 29.8591V3.95342C101.852 2.95469 102.646 2.15979 103.645 2.15979H107.375C108.068 2.15979 108.741 2.58782 109.067 3.26043Z"
            fill="white"
          />
          <path
            d="M155.457 13.5534L162.162 2.50629C162.285 2.30247 162.529 2.15979 162.774 2.15979H167.38C167.93 2.15979 168.277 2.77126 167.992 3.24005L157.373 20.9521C157.311 21.0541 157.271 21.1967 157.271 21.319V30.7152C157.271 31.1025 156.944 31.4286 156.557 31.4286H152.216C151.829 31.4286 151.502 31.1025 151.502 30.7152V21.319C151.502 21.1967 151.462 21.0541 151.401 20.9521L140.7 3.24005C140.415 2.77126 140.761 2.15979 141.311 2.15979H145.999C146.244 2.15979 146.488 2.28208 146.611 2.50629L153.378 13.5738C153.826 14.3483 154.967 14.3483 155.457 13.5534Z"
            fill="white"
          />
          <path
            d="M170.069 30.2874L179.159 17.5893C179.465 17.1613 179.465 16.5906 179.159 16.1422L170.069 3.26067C169.742 2.79188 170.069 2.13965 170.66 2.13965H175.572C175.796 2.13965 176.02 2.26194 176.163 2.44538L182.033 10.7613C182.522 11.4543 183.561 11.4543 184.051 10.7613L189.982 2.44538C190.125 2.26194 190.328 2.13965 190.573 2.13965H195.24C195.832 2.13965 196.158 2.79188 195.811 3.28105L186.7 15.9791C186.395 16.4072 186.395 16.9982 186.7 17.4263L195.832 30.3078C196.158 30.7766 195.832 31.4288 195.24 31.4288H190.39C190.165 31.4288 189.941 31.3269 189.798 31.1231L183.826 22.746C183.337 22.053 182.298 22.053 181.809 22.746L175.796 31.1231C175.653 31.3065 175.449 31.4288 175.205 31.4288H170.619C170.069 31.4288 169.722 30.7766 170.069 30.2874Z"
            fill="white"
          />
          <path
            d="M29.2892 31.1643H1.87516C0.835669 31.1643 0 30.3287 0 29.2892V1.87516C0 0.835668 0.835669 0 1.87516 0H29.2892C30.3287 0 31.1643 0.835668 31.1643 1.87516V29.2892C31.1643 30.3287 30.3287 31.1643 29.2892 31.1643Z"
            fill="#294AE7"
          />
          <path
            d="M8.92732 10.7817L14.2471 5.25814C14.512 4.97279 14.9604 4.97278 15.2458 5.23775L19.4038 9.23266C19.6891 9.49762 20.1375 9.49762 20.4025 9.21227L23.5821 5.95113C23.7248 5.80845 23.9694 5.78807 24.1324 5.95113L25.8445 7.62247C25.9872 7.76514 26.0076 8.00973 25.8445 8.17278L20.5248 13.6148C20.2598 13.9002 19.8114 13.9002 19.526 13.6352L15.3069 9.61992C15.0216 9.35495 14.5732 9.35495 14.3082 9.6403L11.149 12.9218C11.0063 13.0849 10.7617 13.0849 10.5987 12.9422L8.92732 11.332C8.78464 11.1893 8.78464 10.9448 8.92732 10.7817Z"
            fill="white"
          />
          <path
            d="M13.2877 14.5731L14.8571 13.0037C15.0406 12.8202 15.3259 12.8202 15.5093 13.0037L21.1552 18.6903C21.4609 18.996 21.4609 19.4852 21.1552 19.7909L15.652 25.4979C15.4686 25.6814 15.1832 25.6814 14.9998 25.5183L13.41 24.01C13.2265 23.8266 13.2265 23.5412 13.3896 23.3578L16.7934 19.8521C17.0991 19.5463 17.0788 19.0572 16.7934 18.7514L13.2469 15.2457C13.1042 15.0419 13.1042 14.7565 13.2877 14.5731Z"
            fill="white"
          />
          <path
            d="M11.0477 17.3449C9.2133 19.2405 7.3789 21.1156 5.54451 23.0112C5.40183 23.1742 5.40183 23.4188 5.54451 23.5615L7.19546 25.2125C7.35852 25.3755 7.6031 25.3755 7.76616 25.2125L13.0248 19.75C13.2897 19.4647 13.2897 19.0163 13.0248 18.7309L11.6184 17.3246C11.4553 17.1819 11.1904 17.1819 11.0477 17.3449Z"
            fill="white"
          />
        </svg>