<svg width="28" height="28" viewBox="0 0 28 28" fill="none" xmlns="http://www.w3.org/2000/svg">
<path d="M19.0946 4.04317V2.27822C19.0946 1.81436 18.7099 1.42969 18.246 1.42969C17.7822 1.42969 17.3975 1.81436 17.3975 2.27822V3.97529H10.0435V2.27822C10.0435 1.81436 9.65886 1.42969 9.19499 1.42969C8.73113 1.42969 8.34646 1.81436 8.34646 2.27822V4.04317C5.29173 4.32602 3.80963 6.14754 3.58335 8.85154C3.56072 9.17964 3.83225 9.45117 4.14904 9.45117H23.292C23.6201 9.45117 23.8916 9.16832 23.8577 8.85154C23.6314 6.14754 22.1493 4.32602 19.0946 4.04317Z" fill="currentColor"/>
<path d="M22.7725 11.1484H4.67044C4.04818 11.1484 3.53906 11.6576 3.53906 12.2798V19.2491C3.53906 22.6433 5.23613 24.906 9.19596 24.906H14.7737C15.5543 24.906 16.0974 24.148 15.8485 23.4126C15.6222 22.7564 15.4299 22.0323 15.4299 21.5119C15.4299 18.0838 18.2244 15.2893 21.6525 15.2893C21.9806 15.2893 22.3087 15.3119 22.6254 15.3685C23.3043 15.4703 23.9152 14.9386 23.9152 14.2597V12.2911C23.9039 11.6576 23.3948 11.1484 22.7725 11.1484ZM10.5649 20.0524C10.4518 20.1542 10.3273 20.2334 10.1916 20.29C10.0558 20.3466 9.90873 20.3805 9.76165 20.3805C9.61457 20.3805 9.46749 20.3466 9.33173 20.29C9.19596 20.2334 9.07151 20.1542 8.95837 20.0524C8.75472 19.8374 8.63027 19.5433 8.63027 19.2491C8.63027 19.1812 8.64158 19.102 8.6529 19.0342C8.66421 18.955 8.68684 18.8871 8.72078 18.8192C8.74341 18.7513 8.77735 18.6834 8.82261 18.6155C8.85655 18.559 8.91312 18.5024 8.95837 18.4458C9.07151 18.344 9.19596 18.2648 9.33173 18.2082C9.60326 18.0951 9.92004 18.0951 10.1916 18.2082C10.3273 18.2648 10.4518 18.344 10.5649 18.4458C10.6102 18.5024 10.6668 18.559 10.7007 18.6155C10.746 18.6834 10.7799 18.7513 10.8025 18.8192C10.8365 18.8871 10.8591 18.955 10.8704 19.0342C10.8817 19.102 10.893 19.1812 10.893 19.2491C10.893 19.5433 10.7686 19.8374 10.5649 20.0524ZM10.5649 16.0926C10.4518 16.1944 10.3273 16.2736 10.1916 16.3302C10.0558 16.3867 9.90873 16.4207 9.76165 16.4207C9.61457 16.4207 9.46749 16.3867 9.33173 16.3302C9.18465 16.2736 9.07151 16.1944 8.95837 16.0926C8.75472 15.8776 8.63027 15.5834 8.63027 15.2893C8.63027 14.9951 8.75472 14.701 8.95837 14.486C9.07151 14.3842 9.19596 14.305 9.33173 14.2484C9.60326 14.1353 9.92004 14.1353 10.1916 14.2484C10.3273 14.305 10.4518 14.3842 10.5649 14.486C10.6102 14.5426 10.6668 14.5991 10.7007 14.6557C10.746 14.7236 10.7799 14.7915 10.8025 14.8594C10.8365 14.9272 10.8591 14.9951 10.8704 15.063C10.8817 15.1422 10.893 15.2214 10.893 15.2893C10.893 15.5834 10.7686 15.8776 10.5649 16.0926ZM14.5248 16.0926C14.3098 16.2962 14.027 16.4207 13.7215 16.4207C13.5744 16.4207 13.4273 16.3867 13.2916 16.3302C13.1445 16.2736 13.0313 16.1944 12.9182 16.0926C12.7146 15.8776 12.5901 15.5834 12.5901 15.2893C12.5901 15.2214 12.6014 15.1422 12.6127 15.063C12.624 14.9951 12.6467 14.9272 12.6806 14.8594C12.7032 14.7915 12.7372 14.7236 12.7824 14.6557C12.8277 14.5991 12.8729 14.5426 12.9182 14.486C13.3368 14.0674 14.0948 14.0674 14.5248 14.486C14.57 14.5426 14.6153 14.5991 14.6605 14.6557C14.7058 14.7236 14.7397 14.7915 14.7623 14.8594C14.7963 14.9272 14.8189 14.9951 14.8302 15.063C14.8415 15.1422 14.8529 15.2214 14.8529 15.2893C14.8529 15.5834 14.7284 15.8776 14.5248 16.0926Z" fill="currentColor"/>
<path d="M24.8426 18.31C23.0776 16.5451 20.2039 16.5451 18.4389 18.31C16.674 20.075 16.674 22.9487 18.4389 24.7137C20.2039 26.4786 23.0776 26.4786 24.8426 24.7137C26.6075 22.9487 26.6075 20.075 24.8426 18.31ZM23.9827 22.1454C23.8356 22.3038 23.6207 22.3943 23.3831 22.3943H22.5459V23.2768C22.5459 23.5144 22.4553 23.718 22.297 23.8764C22.1386 24.0348 21.9349 24.1253 21.6973 24.1253C21.2335 24.1253 20.8488 23.7407 20.8488 23.2768V22.3943H20.0003C19.5364 22.3943 19.1517 22.021 19.1517 21.5458C19.1517 21.0819 19.5364 20.6973 20.0003 20.6973H20.8488V19.894C20.8488 19.4301 21.2221 19.0454 21.6973 19.0454C22.1612 19.0454 22.5459 19.4301 22.5459 19.894V20.6973H23.3831C23.8583 20.6973 24.2316 21.0819 24.2316 21.5458C24.2316 21.7834 24.1411 21.9983 23.9827 22.1454Z" fill="currentColor"/>
</svg>
