<svg width="28" height="28" viewBox="0 0 28 28" fill="none" xmlns="http://www.w3.org/2000/svg">
<path d="M16.6271 2.27832H11.8979C11.498 2.27832 11.1738 2.6025 11.1738 3.0024V6.48705C11.1738 6.88695 11.498 7.21114 11.8979 7.21114H16.6271C17.027 7.21114 17.3512 6.88695 17.3512 6.48705V3.0024C17.3512 2.6025 17.027 2.27832 16.6271 2.27832Z" fill="currentColor"/>
<path d="M19.7732 2.30758C19.3736 2.276 19.0469 2.60393 19.0469 3.00474V6.48705C19.0469 6.88695 19.3711 7.21114 19.771 7.21114H24.5571C25.0099 7.21114 25.3546 6.7983 25.2192 6.36623C24.4705 3.97702 22.5564 2.52755 19.7732 2.30758Z" fill="currentColor" />
<path d="M3.6733 8.9082C3.2734 8.9082 2.94922 9.23239 2.94922 9.63229V18.3326C2.94922 22.4508 5.40431 24.9059 9.52253 24.9059H19.0035C23.1217 24.9059 25.5768 22.4508 25.5768 18.3326V9.63229C25.5768 9.23239 25.2526 8.9082 24.8527 8.9082H3.6733ZM17.0236 18.3213L14.6703 19.6789C14.1725 19.9618 13.686 20.1089 13.2335 20.1089C12.894 20.1089 12.5886 20.0297 12.3057 19.8713C11.6495 19.4979 11.2875 18.7286 11.2875 17.733V15.0177C11.2875 14.022 11.6495 13.2527 12.3057 12.8793C12.9619 12.4947 13.7991 12.5626 14.6703 13.0717L17.0236 14.4293C17.8947 14.9271 18.3699 15.6286 18.3699 16.3866C18.3699 17.1446 17.8834 17.8122 17.0236 18.3213Z" fill="currentColor"/>
<path d="M9.47668 3.00474C9.47668 2.60393 9.14993 2.276 8.75037 2.30758C5.9672 2.52755 4.05308 3.97702 3.30434 6.36623C3.16894 6.7983 3.51362 7.21114 3.96642 7.21114H8.7526C9.1525 7.21114 9.47668 6.88695 9.47668 6.48705V3.00474Z" fill="currentColor"/>
</svg>
