<svg width="26" height="27" viewBox="0 0 26 27" fill="none" xmlns="http://www.w3.org/2000/svg">
<path d="M25.3134 13.0156C25.3134 19.8204 19.797 25.3368 12.9922 25.3368C6.18739 25.3368 0.671015 19.8204 0.671015 13.0156C0.671015 6.21083 6.18739 0.694453 12.9922 0.694453C19.797 0.694453 25.3134 6.21083 25.3134 13.0156Z" stroke="currentColor" stroke-width="1.35766"/>
<path d="M12.8131 4.60938C10.558 4.60938 8.72461 6.44273 8.72461 8.69785C8.72461 10.9099 10.4547 12.7002 12.7098 12.7777C12.7787 12.7691 12.8475 12.7691 12.8992 12.7777C12.9164 12.7777 12.925 12.7777 12.9422 12.7777C12.9508 12.7777 12.9508 12.7777 12.9594 12.7777C15.1629 12.7002 16.8929 10.9099 16.9015 8.69785C16.9015 6.44273 15.0682 4.60938 12.8131 4.60938Z" fill="currentColor"/>
<path d="M17.186 15.0669C14.7845 13.466 10.8682 13.466 8.44955 15.0669C7.35642 15.7986 6.75391 16.7884 6.75391 17.8471C6.75391 18.9058 7.35642 19.887 8.44094 20.61C9.64596 21.4191 11.2297 21.8237 12.8134 21.8237C14.3972 21.8237 15.9809 21.4191 17.186 20.61C18.2705 19.8784 18.873 18.8972 18.873 17.8299C18.8644 16.7712 18.2705 15.7899 17.186 15.0669Z" fill="currentColor" />
</svg>
