<svg width="35" height="24" viewBox="0 0 35 24" fill="currentColor" xmlns="http://www.w3.org/2000/svg">
<path fillRule="evenodd" clipRule="evenodd" d="M5.82356 20.3035C5.1414 20.5613 4.37939 20.2173 4.12156 19.5352L2.17583 14.3873C1.918 13.7052 2.26198 12.9432 2.94414 12.6853C3.62629 12.4275 4.38831 12.7715 4.64614 13.4536L6.59186 18.6015C6.8497 19.2836 6.50572 20.0456 5.82356 20.3035Z" fill="currentColor"/>
<path fillRule="evenodd" clipRule="evenodd" d="M10.815 21.5948C10.1329 21.8527 9.37085 21.5088 9.11295 20.8267L5.10963 10.2381C4.85173 9.55597 5.19564 8.79392 5.87777 8.53602C6.5599 8.27812 7.32195 8.62203 7.57985 9.30416L11.5832 19.8928C11.8411 20.5749 11.4972 21.3369 10.815 21.5948Z" fill="currentColor"/>
<path fillRule="evenodd" clipRule="evenodd" d="M23.895 9.46326C24.1421 10.1495 23.786 10.906 23.0997 11.153L12.6967 14.8966C12.0106 15.1435 11.2543 14.7875 11.0073 14.1015C10.7602 13.4153 11.1163 12.6587 11.8025 12.4117L22.2055 8.66813C22.8916 8.42123 23.648 8.7772 23.895 9.46326Z" fill="currentColor"/>
<path fillRule="evenodd" clipRule="evenodd" d="M29.026 15.0284C28.3438 15.2863 27.5818 14.9424 27.3239 14.2603L23.3206 3.67169C23.0627 2.98956 23.4066 2.22752 24.0887 1.96962C24.7708 1.71172 25.5329 2.05562 25.7908 2.73776L29.7941 13.3264C30.052 14.0085 29.7081 14.7705 29.026 15.0284Z" fill="currentColor"/>
<path fillRule="evenodd" clipRule="evenodd" d="M31.9583 10.8787C31.2762 11.1365 30.5142 10.7925 30.2563 10.1104L28.3106 4.96252C28.0528 4.28036 28.3967 3.51835 29.0789 3.26051C29.7611 3.00268 30.5231 3.34666 30.7809 4.02882L32.7266 9.17666C32.9845 9.85882 32.6405 10.6208 31.9583 10.8787Z" fill="currentColor"/>
</svg>
