<svg width="30" height="29" viewBox="0 0 30 29" fill="none" xmlns="http://www.w3.org/2000/svg">
<path d="M21.774 2.42969H7.29229C5.28899 2.42969 3.67188 4.03474 3.67188 6.0139V19.1801C3.67188 21.1593 5.28899 22.7764 7.29229 22.7764H8.20946C9.16284 22.7764 10.0921 23.1505 10.7679 23.8263L12.8315 25.8658C13.7728 26.7951 15.2934 26.7951 16.2347 25.8658L18.2984 23.8263C18.9742 23.1505 19.9034 22.7764 20.8568 22.7764H21.774C23.7772 22.7764 25.3944 21.1593 25.3944 19.1801V6.0139C25.3944 4.03474 23.7772 2.42969 21.774 2.42969ZM14.5331 6.71385C15.8365 6.71385 16.8864 7.77583 16.8864 9.06711C16.8864 10.3463 15.8727 11.3721 14.6176 11.4204C14.5693 11.4204 14.4969 11.4204 14.4366 11.4204C13.1694 11.3721 12.1678 10.3463 12.1678 9.06711C12.1799 7.77583 13.2298 6.71385 14.5331 6.71385ZM17.8518 17.744C16.0296 18.9629 13.0367 18.9629 11.2144 17.744C9.60936 16.6821 9.60936 14.9201 11.2144 13.8461C13.0488 12.6272 16.0416 12.6272 17.8518 13.8461C19.4569 14.9201 19.4569 16.67 17.8518 17.744Z" fill="currentColor"/>
</svg>
